<?xml version="1.0" encoding="UTF-8" standalone="no"?>
<!DOCTYPE svg PUBLIC "-//W3C//DTD SVG 1.1//EN" "http://www.w3.org/Graphics/SVG/1.1/DTD/svg11.dtd">
<svg width="100%" height="100%" viewBox="0 0 934 933" version="1.1" xmlns="http://www.w3.org/2000/svg" xmlns:xlink="http://www.w3.org/1999/xlink" xml:space="preserve" xmlns:serif="http://www.serif.com/" style="fill-rule:evenodd;clip-rule:evenodd;stroke-linejoin:round;stroke-miterlimit:2;">
    <g id="Artboard1" transform="matrix(0.981318,0,0,0.967558,-1.63526,-1.55146)">
        <rect x="1.666" y="1.603" width="950.835" height="963.79" style="fill:none;"/>
        <g transform="matrix(0.954059,0.363156,-0.358064,0.967626,59.0266,-448.856)">
            <clipPath id="_clip1">
                <path d="M971.557,151.739C966.364,137.902 950.913,130.883 937.076,136.077L151.487,430.913C137.65,436.106 130.632,451.557 135.825,465.395L430.661,1250.98C435.854,1264.82 451.305,1271.84 465.143,1266.64L1250.73,971.809C1264.57,966.616 1271.59,951.165 1266.39,937.328L971.557,151.739Z"/>
            </clipPath>
            <g clip-path="url(#_clip1)">
                <g transform="matrix(1,0,0,1.49493,-61.0812,-443.114)">
                    <path d="M560.006,645.792C560.006,641.574 554.887,638.15 548.582,638.15L190.616,638.15C184.311,638.15 179.191,641.574 179.191,645.792L179.191,1011.32C179.191,1015.54 184.311,1018.97 190.616,1018.97L548.582,1018.97C554.887,1018.97 560.006,1015.54 560.006,1011.32L560.006,645.792Z" style="fill:rgb(108,39,102);"/>
                </g>
                <g transform="matrix(1,0,0,1.49493,724.713,-632.091)">
                    <path d="M560.006,645.792C560.006,641.574 554.887,638.15 548.582,638.15L190.616,638.15C184.311,638.15 179.191,641.574 179.191,645.792L179.191,1011.32C179.191,1015.54 184.311,1018.97 190.616,1018.97L548.582,1018.97C554.887,1018.97 560.006,1015.54 560.006,1011.32L560.006,645.792Z" style="fill:rgb(108,39,39);"/>
                </g>
                <g transform="matrix(1,0,0,1,724.446,265.488)">
                    <path d="M560.006,649.574C560.006,643.269 554.887,638.15 548.582,638.15L190.616,638.15C184.311,638.15 179.191,643.269 179.191,649.574L179.191,1007.54C179.191,1013.85 184.311,1018.97 190.616,1018.97L548.582,1018.97C554.887,1018.97 560.006,1013.85 560.006,1007.54L560.006,649.574Z" style="fill:rgb(43,121,105);"/>
                </g>
                <g transform="matrix(1,0,0,1,-61.0812,-520.04)">
                    <path d="M560.006,649.574C560.006,643.269 554.887,638.15 548.582,638.15L190.616,638.15C184.311,638.15 179.191,643.269 179.191,649.574L179.191,1007.54C179.191,1013.85 184.311,1018.97 190.616,1018.97L548.582,1018.97C554.887,1018.97 560.006,1013.85 560.006,1007.54L560.006,649.574Z" style="fill:rgb(43,121,105);"/>
                </g>
                <g transform="matrix(1,0,0,1,331.683,-127.276)">
                    <path d="M560.006,649.574C560.006,643.269 554.887,638.15 548.582,638.15L190.616,638.15C184.311,638.15 179.191,643.269 179.191,649.574L179.191,1007.54C179.191,1013.85 184.311,1018.97 190.616,1018.97L548.582,1018.97C554.887,1018.97 560.006,1013.85 560.006,1007.54L560.006,649.574Z" style="fill:rgb(39,44,108);"/>
                </g>
                <g transform="matrix(1,0,0,1,331.683,-520.04)">
                    <path d="M560.006,649.574C560.006,643.269 554.887,638.15 548.582,638.15L190.616,638.15C184.311,638.15 179.191,643.269 179.191,649.574L179.191,1007.54C179.191,1013.85 184.311,1018.97 190.616,1018.97L548.582,1018.97C554.887,1018.97 560.006,1013.85 560.006,1007.54L560.006,649.574Z" style="fill:rgb(155,173,60);"/>
                </g>
                <g transform="matrix(1,0,0,1,331.683,265.754)">
                    <path d="M560.006,649.574C560.006,643.269 554.887,638.15 548.582,638.15L190.616,638.15C184.311,638.15 179.191,643.269 179.191,649.574L179.191,1007.54C179.191,1013.85 184.311,1018.97 190.616,1018.97L548.582,1018.97C554.887,1018.97 560.006,1013.85 560.006,1007.54L560.006,649.574Z" style="fill:rgb(57,137,196);"/>
                </g>
                <g transform="matrix(1,0,0,1,724.352,-709.073)">
                    <path d="M560.006,649.574C560.006,643.269 554.887,638.15 548.582,638.15L190.616,638.15C184.311,638.15 179.191,643.269 179.191,649.574L179.191,1007.54C179.191,1013.85 184.311,1018.97 190.616,1018.97L548.582,1018.97C554.887,1018.97 560.006,1013.85 560.006,1007.54L560.006,649.574Z" style="fill:rgb(59,139,198);"/>
                </g>
                <g transform="matrix(1,0,0,1,-61.0812,455.551)">
                    <path d="M560.006,649.574C560.006,643.269 554.887,638.15 548.582,638.15L190.616,638.15C184.311,638.15 179.191,643.269 179.191,649.574L179.191,1007.54C179.191,1013.85 184.311,1018.97 190.616,1018.97L548.582,1018.97C554.887,1018.97 560.006,1013.85 560.006,1007.54L560.006,649.574Z" style="fill:rgb(108,39,39);"/>
                </g>
            </g>
        </g>
    </g>
</svg>
